<svg width="132" height="135" viewBox="0 0 132 135" fill="none" xmlns="http://www.w3.org/2000/svg">
<path d="M0 30.4615C0 21.489 7.27365 14.2154 16.2462 14.2154H115.754C124.726 14.2154 132 21.489 132 30.4615V44.6769H0V30.4615Z" fill="#FF6F61"/>
<path d="M18.2769 54.8308H38.5846V71.0769H18.2769V54.8308Z" fill="#FF6F61"/>
<path d="M18.2769 81.2308H38.5846V97.4769H18.2769V81.2308Z" fill="#FF6F61"/>
<path d="M54.8308 54.8308H75.1385V71.0769H54.8308V54.8308Z" fill="#FF6F61"/>
<path d="M91.3846 54.8308H111.692V71.0769H91.3846V54.8308Z" fill="#FF6F61"/>
<path d="M73.3942 119.815L52.8 99.6006L57.9486 94.5469L73.3942 109.708L106.544 77.1692L111.692 82.2229L73.3942 119.815Z" fill="#FF6F61"/>
<path fill-rule="evenodd" clip-rule="evenodd" d="M16.2462 24.3692H115.754C119.119 24.3692 121.846 27.0969 121.846 30.4615V117.785C121.846 121.149 119.119 123.877 115.754 123.877H111.334L109.542 134.031H115.754C124.726 134.031 132 126.757 132 117.785V30.4615C132 21.489 124.726 14.2154 115.754 14.2154H16.2462C7.27365 14.2154 0 21.489 0 30.4615V117.785C0 126.757 7.27365 134.031 16.2462 134.031H45.8715L48.2606 123.877H16.2462C12.8815 123.877 10.1538 121.149 10.1538 117.785V30.4615C10.1538 27.0969 12.8815 24.3692 16.2462 24.3692Z" fill="#FF6F61"/>
<path d="M22.3385 4.06154C22.3385 1.81841 24.1569 0 26.4 0H32.4923C34.7354 0 36.5538 1.81841 36.5538 4.06154V24.3692C36.5538 26.6124 34.7354 28.4308 32.4923 28.4308H26.4C24.1569 28.4308 22.3385 26.6124 22.3385 24.3692V4.06154Z" fill="white"/>
<path d="M24.3692 6.09231C24.3692 3.84918 26.1876 2.03077 28.4308 2.03077H30.4615C32.7047 2.03077 34.5231 3.84918 34.5231 6.09231V22.3385C34.5231 24.5816 32.7047 26.4 30.4615 26.4H28.4308C26.1876 26.4 24.3692 24.5816 24.3692 22.3385V6.09231Z" fill="#FF6F61"/>
<path d="M95.4462 4.06154C95.4462 1.81841 97.2646 0 99.5077 0H105.6C107.843 0 109.662 1.81841 109.662 4.06154V24.3692C109.662 26.6124 107.843 28.4308 105.6 28.4308H99.5077C97.2646 28.4308 95.4462 26.6124 95.4462 24.3692V4.06154Z" fill="white"/>
<path d="M97.4769 6.09231C97.4769 3.84918 99.2953 2.03077 101.538 2.03077H103.569C105.812 2.03077 107.631 3.84918 107.631 6.09231V22.3385C107.631 24.5816 105.812 26.4 103.569 26.4H101.538C99.2953 26.4 97.4769 24.5816 97.4769 22.3385V6.09231Z" fill="#FF6F61"/>
</svg>
