<svg width="128" height="128" viewBox="0 0 128 128" fill="none" xmlns="http://www.w3.org/2000/svg">
<circle cx="64" cy="64" r="64" fill="#003366"/>
<path d="M40.1 50.3H82.8V44.2H40.1V50.3ZM40.1 93C38.4225 93 36.9865 92.4027 35.7919 91.2081C34.5973 90.0135 34 88.5775 34 86.9V44.2C34 42.5225 34.5973 41.0865 35.7919 39.8919C36.9865 38.6973 38.4225 38.1 40.1 38.1H43.15V32H49.25V38.1H73.65V32H79.75V38.1H82.8C84.4775 38.1 85.9135 38.6973 87.1081 39.8919C88.3027 41.0865 88.9 42.5225 88.9 44.2V61.5088C87.9342 61.0513 86.9429 60.67 85.9263 60.365C84.9096 60.06 83.8675 59.8313 82.8 59.6788V56.4H40.1V86.9H59.315C59.6708 88.0183 60.0902 89.0858 60.5731 90.1025C61.056 91.1192 61.6279 92.085 62.2888 93H40.1ZM79.75 96.05C75.5308 96.05 71.9344 94.5631 68.9606 91.5894C65.9869 88.6156 64.5 85.0192 64.5 80.8C64.5 76.5808 65.9869 72.9844 68.9606 70.0106C71.9344 67.0369 75.5308 65.55 79.75 65.55C83.9692 65.55 87.5656 67.0369 90.5394 70.0106C93.5131 72.9844 95 76.5808 95 80.8C95 85.0192 93.5131 88.6156 90.5394 91.5894C87.5656 94.5631 83.9692 96.05 79.75 96.05ZM84.8587 88.0438L86.9938 85.9088L81.275 80.19V71.65H78.225V81.41L84.8587 88.0438Z" fill="white"/>
</svg>
