<svg width="25" height="24" viewBox="0 0 25 24" fill="none" xmlns="http://www.w3.org/2000/svg">
<path d="M16.0938 17.558L17.7494 15.9024L13.374 11.527V6.08728H11.0089V12.473L16.0938 17.558ZM12.1914 23.8255C10.5556 23.8255 9.01825 23.515 7.57949 22.8942C6.14073 22.2734 4.8892 21.4308 3.82491 20.3665C2.76062 19.3022 1.91806 18.0507 1.29722 16.6119C0.676385 15.1732 0.365967 13.6359 0.365967 12C0.365967 10.3642 0.676385 8.82684 1.29722 7.38808C1.91806 5.94932 2.76062 4.69779 3.82491 3.6335C4.8892 2.56921 6.14073 1.72665 7.57949 1.10581C9.01825 0.484978 10.5556 0.174561 12.1914 0.174561C13.8273 0.174561 15.3646 0.484978 16.8033 1.10581C18.2421 1.72665 19.4936 2.56921 20.5579 3.6335C21.6222 4.69779 22.4648 5.94932 23.0856 7.38808C23.7064 8.82684 24.0169 10.3642 24.0169 12C24.0169 13.6359 23.7064 15.1732 23.0856 16.6119C22.4648 18.0507 21.6222 19.3022 20.5579 20.3665C19.4936 21.4308 18.2421 22.2734 16.8033 22.8942C15.3646 23.515 13.8273 23.8255 12.1914 23.8255ZM12.1914 21.4604C14.8127 21.4604 17.0448 20.539 18.8876 18.6962C20.7304 16.8534 21.6518 14.6213 21.6518 12C21.6518 9.3787 20.7304 7.14665 18.8876 5.30385C17.0448 3.46105 14.8127 2.53965 12.1914 2.53965C9.5701 2.53965 7.33805 3.46105 5.49525 5.30385C3.65246 7.14665 2.73106 9.3787 2.73106 12C2.73106 14.6213 3.65246 16.8534 5.49525 18.6962C7.33805 20.539 9.5701 21.4604 12.1914 21.4604Z" fill="url(#paint0_linear_151_8)"/>
<defs>
<linearGradient id="paint0_linear_151_8" x1="12.2389" y1="0.17456" x2="12.2389" y2="46.6068" gradientUnits="userSpaceOnUse">
<stop stop-color="#FF6F61"/>
<stop offset="1" stop-color="#FF1F09"/>
</linearGradient>
</defs>
</svg>
