<svg width="24" height="31" viewBox="0 0 24 31" fill="none" xmlns="http://www.w3.org/2000/svg">
<path d="M2.97383 30.8319C2.18382 30.8319 1.50753 30.5506 0.944945 29.9881C0.382365 29.4255 0.101074 28.7492 0.101074 27.9592V13.5954C0.101074 12.8054 0.382365 12.1291 0.944945 11.5665C1.50753 11.004 2.18382 10.7227 2.97383 10.7227H4.4102V7.84991C4.4102 5.86292 5.11044 4.1692 6.5109 2.76873C7.91137 1.36826 9.6051 0.66803 11.5921 0.66803C13.5791 0.66803 15.2728 1.36826 16.6733 2.76873C18.0737 4.1692 18.774 5.86292 18.774 7.84991V10.7227H20.2103C21.0003 10.7227 21.6766 11.004 22.2392 11.5665C22.8018 12.1291 23.0831 12.8054 23.0831 13.5954V27.9592C23.0831 28.7492 22.8018 29.4255 22.2392 29.9881C21.6766 30.5506 21.0003 30.8319 20.2103 30.8319H2.97383ZM2.97383 27.9592H20.2103V13.5954H2.97383V27.9592ZM11.5921 23.6501C12.3821 23.6501 13.0584 23.3688 13.621 22.8062C14.1835 22.2436 14.4648 21.5673 14.4648 20.7773C14.4648 19.9873 14.1835 19.311 13.621 18.7484C13.0584 18.1858 12.3821 17.9045 11.5921 17.9045C10.8021 17.9045 10.1258 18.1858 9.5632 18.7484C9.00062 19.311 8.71933 19.9873 8.71933 20.7773C8.71933 21.5673 9.00062 22.2436 9.5632 22.8062C10.1258 23.3688 10.8021 23.6501 11.5921 23.6501ZM7.28296 10.7227H15.9012V7.84991C15.9012 6.65293 15.4823 5.6355 14.6444 4.79761C13.8065 3.95973 12.7891 3.54078 11.5921 3.54078C10.3951 3.54078 9.37767 3.95973 8.53978 4.79761C7.7019 5.6355 7.28296 6.65293 7.28296 7.84991V10.7227Z" fill="url(#paint0_linear_151_10)"/>
<defs>
<linearGradient id="paint0_linear_151_10" x1="11.6382" y1="0.66803" x2="11.6382" y2="59.8869" gradientUnits="userSpaceOnUse">
<stop stop-color="#FF6F61"/>
<stop offset="1" stop-color="#FF1F09"/>
</linearGradient>
</defs>
</svg>
