<svg width="128" height="128" viewBox="0 0 128 128" fill="none" xmlns="http://www.w3.org/2000/svg">
<circle cx="64" cy="64" r="64" fill="url(#paint0_linear_142_53)"/>
<path d="M32 57.76C32 52.4267 33.1867 47.5333 35.56 43.08C37.9333 38.6267 41.12 34.9333 45.12 32L48.88 37.12C45.68 39.4667 43.1333 42.4267 41.24 46C39.3467 49.5733 38.4 53.4933 38.4 57.76H32ZM89.6 57.76C89.6 53.4933 88.6533 49.5733 86.76 46C84.8667 42.4267 82.32 39.4667 79.12 37.12L82.88 32C86.88 34.9333 90.0667 38.6267 92.44 43.08C94.8133 47.5333 96 52.4267 96 57.76H89.6ZM38.4 86.56V80.16H44.8V57.76C44.8 53.3333 46.1333 49.4 48.8 45.96C51.4667 42.52 54.9333 40.2667 59.2 39.2V36.96C59.2 35.6267 59.6667 34.4933 60.6 33.56C61.5333 32.6267 62.6667 32.16 64 32.16C65.3333 32.16 66.4667 32.6267 67.4 33.56C68.3333 34.4933 68.8 35.6267 68.8 36.96V39.2C73.0667 40.2667 76.5333 42.52 79.2 45.96C81.8667 49.4 83.2 53.3333 83.2 57.76V80.16H89.6V86.56H38.4ZM64 96.16C62.24 96.16 60.7333 95.5333 59.48 94.28C58.2267 93.0267 57.6 91.52 57.6 89.76H70.4C70.4 91.52 69.7733 93.0267 68.52 94.28C67.2667 95.5333 65.76 96.16 64 96.16ZM51.2 80.16H76.8V57.76C76.8 54.24 75.5467 51.2267 73.04 48.72C70.5333 46.2133 67.52 44.96 64 44.96C60.48 44.96 57.4667 46.2133 54.96 48.72C52.4533 51.2267 51.2 54.24 51.2 57.76V80.16Z" fill="white"/>
<defs>
<linearGradient id="paint0_linear_142_53" x1="64.257" y1="-8.62599e-07" x2="64.2571" y2="251.294" gradientUnits="userSpaceOnUse">
<stop stop-color="#FF6F61"/>
<stop offset="1" stop-color="#FF1F09"/>
</linearGradient>
</defs>
</svg>
