<svg width="128" height="128" viewBox="0 0 128 128" fill="none" xmlns="http://www.w3.org/2000/svg">
<circle cx="64" cy="64" r="64" fill="#003366"/>
<path d="M91.0222 96L68.6222 73.6C66.8444 75.0222 64.8 76.1481 62.4889 76.9778C60.1778 77.8074 57.7185 78.2222 55.1111 78.2222C48.6519 78.2222 43.1852 75.9852 38.7111 71.5111C34.237 67.037 32 61.5704 32 55.1111C32 48.6519 34.237 43.1852 38.7111 38.7111C43.1852 34.237 48.6519 32 55.1111 32C61.5704 32 67.037 34.237 71.5111 38.7111C75.9852 43.1852 78.2222 48.6519 78.2222 55.1111C78.2222 57.7185 77.8074 60.1778 76.9778 62.4889C76.1481 64.8 75.0222 66.8444 73.6 68.6222L96 91.0222L91.0222 96ZM55.1111 71.1111C59.5556 71.1111 63.3333 69.5556 66.4444 66.4444C69.5556 63.3333 71.1111 59.5556 71.1111 55.1111C71.1111 50.6667 69.5556 46.8889 66.4444 43.7778C63.3333 40.6667 59.5556 39.1111 55.1111 39.1111C50.6667 39.1111 46.8889 40.6667 43.7778 43.7778C40.6667 46.8889 39.1111 50.6667 39.1111 55.1111C39.1111 59.5556 40.6667 63.3333 43.7778 66.4444C46.8889 69.5556 50.6667 71.1111 55.1111 71.1111Z" fill="white"/>
</svg>
