<svg width="21" height="32" viewBox="0 0 21 32" fill="none" xmlns="http://www.w3.org/2000/svg">
<path d="M2.90909 32C2.10909 32 1.42424 31.7152 0.854545 31.1455C0.284848 30.5758 0 29.8909 0 29.0909V2.90909C0 2.10909 0.284848 1.42424 0.854545 0.854545C1.42424 0.284848 2.10909 0 2.90909 0H17.4545C18.2545 0 18.9394 0.284848 19.5091 0.854545C20.0788 1.42424 20.3636 2.10909 20.3636 2.90909V29.0909C20.3636 29.8909 20.0788 30.5758 19.5091 31.1455C18.9394 31.7152 18.2545 32 17.4545 32H2.90909ZM2.90909 24.7273V29.0909H17.4545V24.7273H2.90909ZM10.1818 28.3636C10.5939 28.3636 10.9394 28.2242 11.2182 27.9455C11.497 27.6667 11.6364 27.3212 11.6364 26.9091C11.6364 26.497 11.497 26.1515 11.2182 25.8727C10.9394 25.5939 10.5939 25.4545 10.1818 25.4545C9.7697 25.4545 9.42424 25.5939 9.14545 25.8727C8.86667 26.1515 8.72727 26.497 8.72727 26.9091C8.72727 27.3212 8.86667 27.6667 9.14545 27.9455C9.42424 28.2242 9.7697 28.3636 10.1818 28.3636ZM2.90909 21.8182H17.4545V7.27273H2.90909V21.8182ZM2.90909 4.36364H17.4545V2.90909H2.90909V4.36364Z" fill="url(#paint0_linear_151_4)"/>
<defs>
<linearGradient id="paint0_linear_151_4" x1="10.2227" y1="-2.1565e-07" x2="10.2227" y2="62.8235" gradientUnits="userSpaceOnUse">
<stop stop-color="#FF6F61"/>
<stop offset="1" stop-color="#FF1F09"/>
</linearGradient>
</defs>
</svg>
