<svg width="128" height="128" viewBox="0 0 128 128" fill="none" xmlns="http://www.w3.org/2000/svg">
<circle cx="64" cy="64" r="64" fill="url(#paint0_linear_142_72)"/>
<path d="M90.1997 96L70.1026 76.5603L77.8111 69.104L97.9082 88.5437L90.1997 96ZM39.5439 96L31.8354 88.5437L57.1633 64.0444L50.9231 58.0083L48.3536 60.4938L43.6734 55.9667V63.2455L41.1039 65.7309L30 54.9903L32.5695 52.5049H40.0945L35.5061 48.0666L48.5371 35.4619C49.7607 34.2783 51.076 33.4202 52.4831 32.8877C53.8902 32.3551 55.3279 32.0888 56.7962 32.0888C58.2645 32.0888 59.7022 32.3551 61.1093 32.8877C62.5164 33.4202 63.8318 34.2783 65.0553 35.4619L56.6127 43.6283L61.2011 48.0666L58.6316 50.552L64.8718 56.5881L73.1309 48.5992C72.8862 47.9482 72.6874 47.2677 72.5344 46.5576C72.3815 45.8474 72.305 45.1373 72.305 44.4272C72.305 40.9357 73.5439 37.9917 76.0216 35.595C78.4993 33.1983 81.543 32 85.1525 32C86.0702 32 86.942 32.0888 87.7679 32.2663C88.5938 32.4438 89.435 32.7101 90.2915 33.0652L81.2065 41.853L87.8138 48.2441L96.8988 39.4563C97.327 40.2848 97.6176 41.0985 97.7706 41.8974C97.9235 42.6963 98 43.5395 98 44.4272C98 47.9186 96.7611 50.8627 94.2834 53.2594C91.8057 55.656 88.762 56.8544 85.1525 56.8544C84.4184 56.8544 83.6842 56.7952 82.9501 56.6768C82.2159 56.5585 81.5124 56.3514 80.8394 56.0555L39.5439 96Z" fill="white"/>
<defs>
<linearGradient id="paint0_linear_142_72" x1="64.257" y1="-8.62599e-07" x2="64.2571" y2="251.294" gradientUnits="userSpaceOnUse">
<stop stop-color="#FF6F61"/>
<stop offset="1" stop-color="#FF1F09"/>
</linearGradient>
</defs>
</svg>
