<svg width="32" height="32" viewBox="0 0 32 32" fill="none" xmlns="http://www.w3.org/2000/svg">
<rect width="32" height="32" rx="16" fill="#CCE6FF"/>
<path d="M9.58476 8.68778C9.58476 7.76264 10.3562 7.01267 11.3079 7.01267H21.1817C22.1334 7.01267 22.9049 7.76264 22.9049 8.68778V20.5392C22.9049 21.4644 22.1334 22.2143 21.1817 22.2143H11.3079C10.3562 22.2143 9.58476 21.4644 9.58476 20.5392V8.68778Z" fill="white"/>
<path fill-rule="evenodd" clip-rule="evenodd" d="M7 8.04185C7 7.17247 7.71205 6.4677 8.5904 6.4677H21.3136C22.192 6.4677 22.904 7.17247 22.904 8.04185V16.9103C22.6701 16.7764 22.3985 16.6997 22.1088 16.6997H20.916C20.2499 16.6997 19.6795 17.105 19.4427 17.6801C19.1701 17.6325 18.8824 17.6531 18.6063 17.7538L13.6612 19.5563C12.837 19.8568 12.428 20.7568 12.7477 21.5665L13.0015 22.2093H8.5904C7.71205 22.2093 7 21.5045 7 20.6351V8.04185Z" fill="#003366"/>
<path d="M8.1928 11.5837H21.7112V19.4545C21.7112 20.3239 20.9992 21.0287 20.1208 21.0287H9.7832C8.90485 21.0287 8.1928 20.3239 8.1928 19.4545V11.5837Z" fill="white"/>
<path fill-rule="evenodd" clip-rule="evenodd" d="M8.5904 6.4677C7.71205 6.4677 7 7.17247 7 8.04185V10.4031H22.904V8.04185C22.904 7.17247 22.192 6.4677 21.3136 6.4677H8.5904Z" fill="#FF6F61"/>
<path d="M9.7832 13.1579H12.1688V15.1256H9.7832V13.1579Z" fill="#003366"/>
<path d="M9.7832 16.6997H12.1688V18.6674H9.7832V16.6997Z" fill="#003366"/>
<path d="M13.7592 13.1579H16.1448V15.1256H13.7592V13.1579Z" fill="#003366"/>
<path d="M17.7352 13.1579H20.1208V15.1256H17.7352V13.1579Z" fill="#003366"/>
<path d="M9.7832 5.28708C9.7832 4.85239 10.1392 4.5 10.5784 4.5H10.976C11.4152 4.5 11.7712 4.85239 11.7712 5.28708V7.64831C11.7712 8.08301 11.4152 8.43539 10.976 8.43539H10.5784C10.1392 8.43539 9.7832 8.08301 9.7832 7.64831V5.28708Z" fill="white"/>
<path d="M10.1808 5.48385C10.1808 5.15783 10.4478 4.89354 10.7772 4.89354C11.1066 4.89354 11.3736 5.15783 11.3736 5.48385V7.45155C11.3736 7.77756 11.1066 8.04185 10.7772 8.04185C10.4478 8.04185 10.1808 7.77756 10.1808 7.45155V5.48385Z" fill="#003366"/>
<path d="M18.5304 5.28708C18.5304 4.85239 18.8864 4.5 19.3256 4.5H19.7232C20.1624 4.5 20.5184 4.85239 20.5184 5.28708V7.64831C20.5184 8.08301 20.1624 8.43539 19.7232 8.43539H19.3256C18.8864 8.43539 18.5304 8.08301 18.5304 7.64831V5.28708Z" fill="white"/>
<path d="M18.928 5.48385C18.928 5.15783 19.195 4.89354 19.5244 4.89354C19.8538 4.89354 20.1208 5.15783 20.1208 5.48385V7.45155C20.1208 7.77756 19.8538 8.04185 19.5244 8.04185C19.195 8.04185 18.928 7.77756 18.928 7.45155V5.48385Z" fill="#003366"/>
<path d="M18.9615 26.4201C18.7436 26.0427 18.876 25.5619 19.2572 25.3462L23.4154 22.9934C23.7966 22.7777 24.2824 22.9088 24.5004 23.2861L24.895 23.9694C25.113 24.3468 24.9806 24.8276 24.5993 25.0434L20.4412 27.3961C20.0599 27.6118 19.5741 27.4808 19.3562 27.1034L18.9615 26.4201Z" fill="#003366"/>
<path d="M14.7722 22.9241C13.3408 22.0461 14.6976 20.729 15.8904 21.6071C17.0832 22.4851 17.0087 22.2656 17.0087 22.2656C17.0087 22.2656 14.9958 18.0949 14.7722 17.6558C14.5485 17.2168 14.3249 16.5583 14.9958 16.3388C15.2966 16.2404 15.6668 16.3388 16.1141 16.9973C16.5614 17.6558 17.5116 19.8184 17.7352 19.8184C17.8406 19.8184 17.456 18.7534 18.3506 18.7534C19.2452 18.7534 19.1825 19.7602 19.3008 19.412C19.4151 19.0752 19.3526 18.6517 19.965 18.6147C20.4814 18.5834 20.6477 18.9829 20.8663 19.412C20.8663 19.412 20.8107 18.5339 21.4817 18.5339C21.7843 18.5339 21.9846 18.5013 22.2082 18.9403C22.4319 19.3793 23.4946 21.6071 23.2709 22.7046C23.0472 23.8022 21.7053 25.1193 19.9161 25.3388C18.1269 25.5583 16.2035 23.8022 14.7722 22.9241Z" fill="#FF6F61"/>
<path fill-rule="evenodd" clip-rule="evenodd" d="M15.6363 16.1217C15.8847 16.248 16.1234 16.482 16.3615 16.8326C16.5574 17.121 16.8391 17.6714 17.108 18.1969C17.1642 18.3067 17.2199 18.4155 17.2741 18.5205C17.358 18.6833 17.439 18.8382 17.5145 18.9781C17.5484 18.8896 17.5981 18.8011 17.6708 18.7216C17.8312 18.5465 18.0632 18.4583 18.3506 18.4583C18.6354 18.4583 18.8618 18.5399 19.0369 18.6678C19.0873 18.7046 19.1319 18.7442 19.1717 18.7849C19.1738 18.7804 19.1759 18.776 19.1781 18.7715C19.2356 18.655 19.3235 18.5413 19.4622 18.4564C19.5974 18.3737 19.7599 18.3314 19.9468 18.32C20.3031 18.2985 20.5594 18.4325 20.7474 18.6414C20.7874 18.5762 20.8371 18.5125 20.899 18.4553C21.0453 18.3202 21.2411 18.2387 21.4817 18.2387C21.4965 18.2387 21.5128 18.2385 21.5303 18.2383C21.6502 18.2366 21.8259 18.2342 21.9871 18.2991C22.1971 18.3838 22.3467 18.5565 22.4745 18.8074C22.5899 19.034 22.9174 19.7129 23.1887 20.4778C23.3243 20.8602 23.4481 21.2702 23.5235 21.6596C23.5979 22.0437 23.6304 22.4331 23.5632 22.763C23.4346 23.3939 22.9964 24.052 22.3737 24.5759C21.7465 25.1035 20.9104 25.5142 19.9528 25.6317C18.954 25.7542 17.9517 25.3244 17.0572 24.7966C16.605 24.5297 16.1664 24.229 15.7568 23.9443C15.7099 23.9117 15.6635 23.8793 15.6174 23.8473C15.2576 23.5968 14.9242 23.3646 14.6151 23.175C14.214 22.929 13.9641 22.6248 13.885 22.292C13.8045 21.9534 13.9135 21.6352 14.1289 21.4061C14.5561 20.9514 15.3676 20.8544 16.0684 21.3702C16.1687 21.4441 16.2593 21.5096 16.3411 21.5677C16.1602 21.1932 15.9354 20.7282 15.7054 20.2529C15.173 19.153 14.6159 18.0047 14.5059 17.7887C14.3909 17.563 14.2503 17.2357 14.2503 16.915C14.2503 16.7476 14.2885 16.5677 14.4015 16.4069C14.5154 16.2448 14.6863 16.1292 14.9022 16.0585M17.0087 22.2656C17.2913 22.1716 17.2917 22.1726 17.2917 22.1726L17.292 22.1736L17.2927 22.1757L17.2941 22.1802C17.2951 22.1832 17.296 22.1866 17.297 22.1902C17.2989 22.1973 17.3009 22.2057 17.3027 22.2153C17.306 22.2335 17.3093 22.2605 17.3071 22.2931C17.3023 22.3638 17.2676 22.473 17.1542 22.5398C17.0605 22.595 16.9671 22.5871 16.9232 22.5804C16.8726 22.5725 16.824 22.5556 16.7802 22.5372C16.6127 22.4668 16.3069 22.2814 15.7125 21.8439C15.2205 21.4817 14.7571 21.6042 14.5656 21.8081C14.4715 21.9082 14.4352 22.029 14.4656 22.1568C14.4974 22.2906 14.6147 22.4803 14.9293 22.6733C15.2542 22.8726 15.6031 23.1155 15.9603 23.3643C16.0066 23.3965 16.053 23.4288 16.0995 23.4612C16.509 23.7458 16.9315 24.0351 17.3627 24.2895C18.235 24.8043 19.089 25.1428 19.8794 25.0459C20.7111 24.9438 21.4405 24.5862 21.9875 24.1261C22.5389 23.6622 22.8835 23.1129 22.9786 22.6463C23.0232 22.4274 23.0067 22.1267 22.9378 21.7707C22.8699 21.42 22.756 21.0399 22.6259 20.6733C22.3659 19.9401 22.0502 19.2857 21.942 19.0732C21.8461 18.8851 21.7838 18.8546 21.762 18.8458C21.7197 18.8288 21.677 18.8288 21.5348 18.829C21.5184 18.829 21.5008 18.8291 21.4817 18.8291C21.3868 18.8291 21.3379 18.8574 21.3059 18.8869C21.2671 18.9227 21.2326 18.9808 21.2068 19.0617C21.1814 19.1413 21.1701 19.2256 21.1657 19.2934C21.1636 19.3265 21.1633 19.3536 21.1634 19.3717C21.1635 19.3806 21.1637 19.3872 21.1639 19.391L21.164 19.3942C21.1727 19.534 21.081 19.6601 20.9444 19.6968C20.8077 19.7335 20.6638 19.67 20.6001 19.5448C20.586 19.5173 20.5726 19.4908 20.5597 19.4653C20.4624 19.273 20.393 19.136 20.3038 19.036C20.2252 18.9479 20.1411 18.8997 19.9832 18.9093C19.8639 18.9165 19.8045 18.941 19.7757 18.9586C19.7503 18.9741 19.7319 18.9943 19.7141 19.0304C19.6932 19.0728 19.6772 19.1286 19.6577 19.2149C19.6549 19.2275 19.6519 19.2411 19.6487 19.2555C19.6329 19.3277 19.6127 19.4199 19.5834 19.506C19.5741 19.5334 19.5615 19.5671 19.5443 19.5995C19.5334 19.6199 19.4914 19.6989 19.3995 19.7459C19.3421 19.7753 19.271 19.7891 19.1964 19.7745C19.1278 19.7611 19.0795 19.7282 19.0516 19.7044C19.0018 19.6622 18.9748 19.6126 18.9657 19.596C18.9477 19.5629 18.9288 19.5178 18.9157 19.4866C18.9133 19.4809 18.9111 19.4756 18.9091 19.471C18.8923 19.4314 18.8746 19.3915 18.853 19.351C18.8096 19.2695 18.7557 19.196 18.6828 19.1428C18.6143 19.0927 18.513 19.0486 18.3506 19.0486C18.1906 19.0486 18.1352 19.0935 18.1128 19.118C18.0817 19.152 18.0547 19.2136 18.0434 19.3174C18.0323 19.42 18.0399 19.527 18.0474 19.6308C18.0476 19.6329 18.0478 19.6351 18.0479 19.6373C18.051 19.6799 18.0553 19.7379 18.0531 19.7858C18.0522 19.8073 18.0492 19.8607 18.0261 19.9171C18.0136 19.9478 17.9881 19.997 17.9371 20.04C17.8801 20.0881 17.8085 20.1135 17.7352 20.1135C17.6112 20.1135 17.5247 20.0459 17.4939 20.0205C17.4521 19.9859 17.4156 19.9446 17.3858 19.9072C17.3249 19.8311 17.2597 19.7305 17.1939 19.6206C17.061 19.3986 16.9034 19.1001 16.7429 18.789C16.6844 18.6756 16.6257 18.561 16.5675 18.4473C16.298 17.9211 16.0397 17.4168 15.8666 17.162C15.6574 16.8541 15.4873 16.7096 15.3637 16.6467C15.2524 16.5901 15.1678 16.5934 15.0894 16.619C14.9699 16.6581 14.9171 16.7071 14.8912 16.744C14.8644 16.7821 14.8467 16.8354 14.8467 16.915C14.8467 17.0882 14.9298 17.3097 15.0384 17.523C15.152 17.746 15.7132 18.9026 16.2432 19.9978C16.5089 20.5467 16.7675 21.0818 16.9597 21.4797L17.2777 22.1382C17.2777 22.1382 17.2778 22.1384 17.0087 22.2656ZM17.0087 22.2656L17.2777 22.1382L17.2856 22.1546L17.2913 22.1716L17.0087 22.2656ZM15.6363 16.1217C15.3755 15.989 15.1246 15.9858 14.9022 16.0585L15.6363 16.1217Z" fill="#003366"/>
</svg>
